<?xml version="1.0" encoding="utf-8"?>
<!-- Generator: Adobe Illustrator 28.2.0, SVG Export Plug-In . SVG Version: 6.00 Build 0)  -->
<svg version="1.1" id="Layer_1" xmlns="http://www.w3.org/2000/svg" xmlns:xlink="http://www.w3.org/1999/xlink" x="0px" y="0px"
	 viewBox="0 0 500 500" style="enable-background:new 0 0 500 500;" xml:space="preserve">
<style type="text/css">
	.st0{fill:#E0BCA5;}
	.st1{fill:#D8A38C;}
	.st2{fill:#F0CEB2;}
	.st3{opacity:0.15;fill:#9F5754;enable-background:new    ;}
	.st4{fill:#B87967;}
	.st5{fill:#9D5B56;}
	.st6{opacity:0.43;fill:#9F5754;enable-background:new    ;}
	.st7{fill:#82524A;}
	.st8{fill:#65342C;}
	.st9{fill:#63322A;}
	.st10{fill:#64332B;}
	.st11{fill:#E8BA99;}
</style>
<g>
	<g>
		<path class="st0" d="M199.1,399.4c-48-0.4-90.7-15.9-102.7-20.7c-1-0.4-1.9-0.7-2.7-1c-4.4-1.6-9.4-3.5-12-8.8
			c-1.5-3-1.8-5.9-2.2-10.3c-0.3-2.4-0.6-5.4-1.2-9.5c-10.4-70.4-15.8-107.9-16.2-111.2c-1.3-10.5,8.5-19.2,11.5-21.6l6.1-4.8l6,4.9
			c0,0,25,17.1,127.4,19.2c10.1,0.2,19.1,0.3,27.2,0.4c35.9,0.3,50.4-0.6,56.1-1.6c0.3-1,0.7-2,1.3-3.1l2.8-4.6c0,0,6,0,6.2,0
			c4.8,0,5.4,1.1,17.4,21.3l2.1,3.5L295.6,367l-0.8,1.3c-1.9,2.8-19.8,27.7-82.8,30.9C207.8,399.3,203.5,399.4,199.1,399.4
			L199.1,399.4L199.1,399.4z"/>
		<path class="st1" d="M268.4,70.3c0,0,78.7,12.9,77.2,58.3c-1.5,45.4-57.4,37.9-57.4,37.9s-151.3-2.6-184.1-4.6
			s-46.4-28.7-46.3-45.6s28.6-48.2,63.1-48.8S268.4,70.3,268.4,70.3L268.4,70.3L268.4,70.3z"/>
		<path class="st2" d="M71.2,151.7l39.7,302.5c0,0,17.7,36.4,88.3,38.6c70.6,2.3,96.5-40.1,96.5-40.1L332.3,157c0,0-7.8,12-129.6,9
			C80.8,163,71.2,151.8,71.2,151.7L71.2,151.7L71.2,151.7z"/>
		<path class="st0" d="M339.8,116.1c0,0-10.9,15.7-54.3,18c-43.3,2.4-198.3,3.1-207.2-3.2c-9-6.2-20.6-12.9-20.6-12.9
			s-1.2,33.1,23.3,43.1c24.5,9.9,203.6,11.7,219.4,9.6c15.8-2.1,40.2-10.1,42.5-31.6C345.2,117.6,339.8,116.1,339.8,116.1
			L339.8,116.1L339.8,116.1z"/>
		<path class="st3" d="M192.3,100.1c0,0,48-7.1,75.4,5.1s28.7,23.2,28.7,23.2s-4.4,2.4-56.2,2.5c-51.7,0.1-130.4-1.1-130.4-1.1
			L192.3,100.1L192.3,100.1L192.3,100.1z"/>
		<path class="st2" d="M342,111.5c0,0-10.9,15.7-54.3,18c-43.3,2.4-198.3,3.1-207.2-3.2s-20.6-12.9-20.6-12.9s-1.2,33.1,23.3,43.1
			c24.5,9.9,203.6,11.7,219.4,9.6c15.8-2.1,40.2-10.1,42.5-31.6C347.3,113,342,111.5,342,111.5L342,111.5L342,111.5z"/>
		<path class="st4" d="M78.3,223.7c0,0-8.7,6.9-7.9,12.9c0.8,6,18.7,127.9,18.7,127.9s51.1,37.9,111,34.9
			c59.9-3,112.3-30.8,112.3-30.8l19.3-145.9c0,0-6.8-5.5-6.8-5.4s-3.3,30-113.2,27.7C101.8,242.8,78.3,223.7,78.3,223.7L78.3,223.7
			L78.3,223.7z"/>
		<path class="st5" d="M277,373.1c-0.3,0-0.7,0-1.1-0.1c-3.9-0.6-6.7-4.3-6.1-8.2l16.5-106.2c0.6-3.9,4.4-6.7,8.2-6.1
			c3.9,0.6,6.7,4.3,6.1,8.2L284.2,367C283.7,370.6,280.5,373.1,277,373.1L277,373.1L277,373.1z"/>
		<path class="st5" d="M154.8,378.7c-3.6,0-6.6-2.7-7.1-6.3l-14.3-110.8c-0.5-4,2.3-7.6,6.2-8.1c3.9-0.5,7.6,2.3,8.1,6.2L162,370.6
			c0.5,4-2.3,7.6-6.2,8.1C155.4,378.7,155.1,378.7,154.8,378.7L154.8,378.7z"/>
		<path class="st5" d="M121,373.7c-3.7,0-6.8-2.8-7.1-6.5l-10.9-110.8c-0.4-4,2.5-7.5,6.5-7.9c4-0.4,7.5,2.5,7.9,6.5l10.9,110.8
			c0.4,4-2.5,7.5-6.5,7.9L121,373.7L121,373.7L121,373.7z"/>
	</g>
	<path class="st6" d="M342.9,112.2c-2.1,71.8-92.9,59-177.4,53.9c-84.5-5-87.4-10.4-94.3-14.4c-6.9-4,16-73.5,77.5-72.2
		s97.2-0.1,129.1,6.2C309.7,92,335.5,103.5,342.9,112.2L342.9,112.2z"/>
	<g>
		<path class="st0" d="M139.9,15.3c0,0-30.3-4.5-64.2,8.4c-1.7,0.6-4.8,1.6-5.9,4.5c-1.1,2.9-1.1,4.4-1.1,4.4l4.6,41.9
			c0,0-27.1,15.3-32.5,20.8c-4.1,4.3,0.5,43.4,1.5,47.1s5.8,9,12.4,12.6c6.7,3.7,13.5,4.4,13.5,4.4s47.1,5.6,91.8,7
			s128.4-6.6,128.4-6.6s-131.3-3.9-150-4.2c-18.6-0.3-82.8-7.2-82.3-10.9c-8.3-5.6-12-8.6-7.9-45.8c5.2-3.9,31.5-20.5,31.5-20.5
			S76.7,35,80.5,31.8C103.8,17,140,15.4,139.9,15.3L139.9,15.3L139.9,15.3z"/>
		<path class="st7" d="M79.9,33c0.9-2.4,23-20,102.5-19.3C261.8,14.3,311,34.9,311,34.9l13.3,49.7c0,0,24.7,5.8,29.3,10.6
			c4.6,4.8-0.7,32.1,1.6,38.9c2.3,6.8,0,19.5-16.1,24.4c-16,4.9-233.1-3.8-233.1-3.8S62.5,151,52.6,144c-10-7.1-5-40.2-5.4-44
			c-0.4-3.8,32.5-21.6,32.5-21.6S79.1,35.4,79.9,33L79.9,33L79.9,33z"/>
		<path class="st8" d="M79.7,78.4c0,0-8,15.2-4.3,18.1c7,10.2,58,17.1,62.7,18.9c4.7,1.7-63.7,1.7-71-11.4
			C59.8,90.8,79.6,78.5,79.7,78.4L79.7,78.4L79.7,78.4z"/>
		<path class="st9" d="M325.1,86.1c0,0,2.6,15.3-3.1,17.5c-5.7,2.1-45.7,9.2-45.7,9.2s52.8,6.3,60.6-3.6
			C344.6,99.3,325.1,86.1,325.1,86.1L325.1,86.1L325.1,86.1z"/>
		<path class="st10" d="M237.5,110.2c0,0,9.5,1.6,16.1,2.3c6.7,0.8,16.7,0.8,16.7,0.8s-4.3,2.7-11.6,2.3
			C251.4,115.2,237.4,110.2,237.5,110.2L237.5,110.2z"/>
		<path class="st10" d="M184.3,53c-12.3-5.1-26.6-8.6-17.2-16c8.5-7.7,43.2-5.8,49.8,0.3c6.6,6.1-14.7,13.7-14.7,13.7
			s-5,3.7-1.3,5.7c3.7,2,16.2,2.3,23.7,2.4c15,0.1,34-6.7,34.8-16.9c0.8-10.2-55.4-17-74.1-15.4c-18.7,1.6-33.3,3.9-38.7,6.9
			c-8.4,6.4-9.7,13.7,0.6,20.1c4.9,3,32.2,5.3,39.8,4.8C195.5,58,184.3,53,184.3,53L184.3,53z"/>
	</g>
</g>
<path class="st11" d="M340.4,310.1L340.4,310.1c-23.1-35.4-17.7-68.5,21.9-94.4c24.9-46.6-57.8-90.7-45.7-98.5
	c100,20.3,101.4,32.2,120,71.2c35.6,6.3,40.8,18.2,47.1,27.9c23.1,35.3,9.6,84.9-29.9,110.8S363.5,345.4,340.4,310.1L340.4,310.1z"
	/>
</svg>
