<svg width="68" height="176" viewBox="0 0 68 176" fill="none" xmlns="http://www.w3.org/2000/svg">
<path d="M57.8413 1L67.0833 15.3051L58.1409 30.2092L48.8704 15.6046L57.8413 1Z" stroke="#82524A" stroke-miterlimit="10"/>
<path d="M43.3507 45.1133L50.1966 55.7387L43.5646 66.8205L36.6759 55.9669L43.3507 45.1133Z" fill="#82524A"/>
<path d="M59.9948 100.522C56.4577 111.946 44.8054 104.872 44.8054 104.872L36.2053 104.173L30.7856 112.759C30.7856 112.759 33.6238 113.943 36.0912 112.759C38.5585 111.59 38.2163 110.406 39.9705 109.351C41.739 108.295 51.2805 105.942 50.2108 115.241C49.1269 124.54 37.5031 118.778 37.5031 118.778L27.491 118.421L22.7559 130.074C22.7559 130.074 29.502 131.257 30.6715 129.96C31.8553 128.662 36.6902 126.308 36.6902 126.308C36.6902 126.308 45.0336 124.54 44.8054 133.368C44.563 142.211 29.9726 135.964 29.9726 135.964L19.4899 135.493L14.769 147.745C14.769 147.745 19.2474 147.745 21.3725 146.917C22.542 142.211 29.4449 141.384 30.3149 145.976C31.1992 150.569 28.903 153.507 22.1997 152.451C19.989 152.337 13.3571 154.334 12.4158 154.576C11.4744 154.805 11.7169 164.46 6.29723 166.471C0.877562 168.468 5.94068 157.757 5.94068 157.757C5.94068 157.757 7.5951 150.098 4.99936 146.447C2.40363 142.796 1.70478 141.384 1.70478 141.384C1.70478 141.384 -2.88768 134.438 3.00264 133.497C8.89297 132.555 7.5951 141.27 7.5951 141.27L10.1766 143.152L14.6549 134.666C14.6549 134.666 13.9561 132.313 13.5995 131.015C13.243 129.717 8.89297 124.183 8.89297 124.183C8.89297 124.183 2.40363 118.421 9.70592 116.881C15.8387 115.826 14.769 123.37 14.769 123.37L17.8354 127.963L22.3138 115.712L14.5408 106.641C14.5408 106.641 11.3603 97.2277 17.9495 96.5145C24.553 95.8014 22.3138 105.942 22.3138 105.942L26.4356 110.763L33.4384 98.4685C33.4384 98.4685 31.299 96.2436 28.6177 94.3324C20.1174 93.7619 17.7213 82.3093 23.8399 77.1321C29.9726 71.9549 32.3259 91.9221 32.3259 91.9221L36.6902 94.746C36.6902 94.746 39.0292 89.0981 40.5695 86.7449C42.0956 84.3916 44.8054 84.5057 45.8608 85.447C46.9305 86.3883 46.8021 88.5134 46.8021 88.5134L39.7423 97.8124C39.7423 97.8124 43.4505 98.3401 45.433 98.6396C45.9892 93.8047 60.3941 90.6242 59.9948 100.522Z" fill="#C68063"/>
<path d="M32.1262 174.287C31.7412 175.77 29.8015 175.556 26.8492 174.786C23.8969 174.016 21.0302 172.96 21.4153 171.491C21.8003 170.022 24.5102 169.438 27.4767 170.208C30.4433 170.978 32.5113 172.804 32.1262 174.287Z" fill="#C68063"/>
<path d="M37.2892 160.452C37.5317 162.449 34.3797 164.175 30.2294 164.688C26.0791 165.202 21.8289 165.373 21.5722 163.376C21.3154 161.379 25.1805 157.543 29.3309 157.029C33.4812 156.516 37.0468 158.441 37.2892 160.438V160.452Z" fill="#C68063"/>
</svg>
