<svg width="87" height="114" viewBox="0 0 87 114" fill="none" xmlns="http://www.w3.org/2000/svg">
<path d="M67.2961 37.1165C67.2961 18.5303 52.232 3.48746 33.6671 3.48746C15.1022 3.48746 0.016895 18.5303 0.016895 37.1165C0.016895 42.2298 -0.831786 47.8735 9.50091 58.7791C7.23069 77.6622 5.1302 82.3724 33.6459 113.965C39.2896 113.965 21.5946 77.8107 39.7988 66.6081C58.385 66.6081 67.2749 55.7026 67.2749 37.1165H67.2961Z" fill="#E8BA99"/>
<path d="M84.9273 7.11557C82.6783 3.48746 72.091 -1.6895 68.4841 0.538293C64.8559 2.7873 70.627 11.6136 72.8548 15.2205C75.0826 18.8274 81.0658 24.9379 84.6727 22.6889C88.2796 20.4399 87.155 10.7225 84.9273 7.09436V7.11557Z" fill="#E8BA99"/>
</svg>
