<svg width="274" height="369" viewBox="0 0 274 369" fill="none" xmlns="http://www.w3.org/2000/svg">
<g opacity="0.25">
<path d="M213.327 155.703H1V342.678H213.327V155.703Z" stroke="#82524A" stroke-miterlimit="10"/>
<path d="M1 311.531H213.327" stroke="#82524A" stroke-miterlimit="10"/>
<path d="M1 280.361H213.327" stroke="#82524A" stroke-miterlimit="10"/>
<path d="M1 249.19H213.327" stroke="#82524A" stroke-miterlimit="10"/>
<path d="M1 218.02H213.327" stroke="#82524A" stroke-miterlimit="10"/>
<path d="M1 186.873H213.327" stroke="#82524A" stroke-miterlimit="10"/>
<path d="M177.935 155.703V342.678" stroke="#82524A" stroke-miterlimit="10"/>
<path d="M142.543 155.703V342.678" stroke="#82524A" stroke-miterlimit="10"/>
<path d="M107.151 155.703V342.678" stroke="#82524A" stroke-miterlimit="10"/>
<path d="M71.7835 155.703V342.678" stroke="#82524A" stroke-miterlimit="10"/>
<path d="M36.3918 155.703V342.678" stroke="#82524A" stroke-miterlimit="10"/>
</g>
<path d="M102.358 205.833L98.0174 211.748C98.0174 211.748 83.2549 203.877 74.7885 209.983C66.3222 216.088 66.7038 226.725 66.7038 226.725C66.7038 226.725 43.4749 226.915 34.4124 241.487C25.3498 256.059 46.4322 265.718 46.4322 265.718C46.4322 265.718 80.1784 290.067 107.414 282.531C134.649 274.995 130.595 240.533 129.188 231.471C127.757 222.408 116.357 198.774 115.57 199.179C114.783 199.585 102.382 205.881 102.382 205.881L102.358 205.833Z" fill="#BB5F26"/>
<path d="M103.55 284.201C103.55 284.201 82.0863 290.497 60.2169 288.326C38.3474 286.156 30.4773 278.286 26.733 269.629C22.9887 260.972 36.1772 260.185 36.1772 260.185H67.3C67.3 260.185 70.448 249.167 78.3182 243.443C86.1883 237.719 92.6991 237.528 92.6991 237.528C92.6991 237.528 93.6769 245.017 94.8693 247.569C96.0618 250.12 97.6358 251.122 96.8488 253.674C96.8488 253.674 88.5732 263.118 91.5305 269.033C94.4877 274.947 98.4228 280.838 101.38 278.095C104.337 275.353 100.975 269.033 100.975 269.033L99.9968 260.566C99.9968 260.566 107.867 258.992 108.082 255.844C108.296 252.696 98.6374 243.252 99.2098 234.786C99.7822 226.319 102.167 224.149 102.167 224.149L104.719 205.451C104.719 205.451 105.315 199.537 112.589 199.155C119.887 198.75 128.544 224.364 129.14 233.021C129.736 241.678 123.822 264.716 118.694 272.801C113.567 280.886 103.526 284.224 103.526 284.224L103.55 284.201Z" fill="#CE7B30"/>
<path d="M108.582 309.313C117.763 309.313 125.205 304.541 125.205 298.653C125.205 292.765 117.763 287.992 108.582 287.992C99.4019 287.992 91.9597 292.765 91.9597 298.653C91.9597 304.541 99.4019 309.313 108.582 309.313Z" fill="#A17647"/>
<path d="M90.5504 316.593C92.4602 313.285 89.8288 308.191 84.673 305.214C79.5171 302.237 73.7893 302.506 71.8794 305.814C69.9696 309.122 72.601 314.216 77.7568 317.193C82.9127 320.17 88.6405 319.901 90.5504 316.593Z" fill="#A37749"/>
<path d="M109.155 203.377C111.206 200.157 108.749 191.404 100.998 186.492C93.2714 181.603 83.1594 175.64 81.1323 178.86C79.1051 182.08 83.7079 195.435 91.435 200.348C99.162 205.261 107.104 206.596 109.155 203.377Z" fill="#976F44"/>
<path d="M200.901 328.75C210.082 328.75 217.524 323.977 217.524 318.09C217.524 312.202 210.082 307.429 200.901 307.429C191.721 307.429 184.279 312.202 184.279 318.09C184.279 323.977 191.721 328.75 200.901 328.75Z" fill="#AF854B"/>
<path d="M252.01 283.938C262.705 283.938 271.375 277.777 271.375 270.177C271.375 262.578 262.705 256.417 252.01 256.417C241.314 256.417 232.644 262.578 232.644 270.177C232.644 277.777 241.314 283.938 252.01 283.938Z" fill="#A0733B"/>
<path d="M249.434 332.018C249.434 326.127 241.993 318.114 232.811 318.114C223.629 318.114 216.188 326.127 216.188 332.018C216.188 337.908 223.629 342.678 232.811 342.678C241.993 342.678 249.434 337.908 249.434 332.018Z" fill="#AF854B"/>
<path d="M269.467 301.539C269.467 294.479 260.595 284.892 249.649 284.892C238.702 284.892 229.83 294.503 229.83 301.539C229.83 308.574 238.702 314.322 249.649 314.322C260.595 314.322 269.467 308.598 269.467 301.539Z" fill="#A0733B"/>
<path d="M234.958 286.824C234.958 279.765 226.086 270.177 215.139 270.177C204.193 270.177 195.321 279.788 195.321 286.824C195.321 293.859 204.193 299.607 215.139 299.607C226.086 299.607 234.958 293.883 234.958 286.824Z" fill="#A0733B"/>
<path d="M62.8402 193.932C62.554 193.932 62.2678 193.885 61.9816 193.766C60.7653 193.289 60.1453 191.905 60.6222 190.665C62.8402 184.989 69.1363 175.02 76.6248 172.468C77.865 172.039 79.2244 172.707 79.6536 173.947C80.0829 175.187 79.4152 176.547 78.175 176.976C73.1429 178.693 67.443 186.325 65.082 192.382C64.7242 193.312 63.818 193.909 62.864 193.909L62.8402 193.932Z" fill="#C68063"/>
<path d="M47.6008 222.527C47.41 222.527 47.1954 222.527 47.0046 222.456C45.7406 222.122 44.9774 220.834 45.2875 219.546C48.8171 205.952 54.3739 201.803 54.994 201.373C56.091 200.634 57.5696 200.896 58.309 201.993C59.0483 203.09 58.7859 204.569 57.6889 205.308C57.6889 205.308 52.9668 208.862 49.8903 220.739C49.6041 221.812 48.6501 222.527 47.5769 222.527H47.6008Z" fill="#C68063"/>
<path d="M248.647 207.884C248.647 207.884 248.647 197.247 243.138 194.29C230.76 192.12 240.18 212.01 240.18 212.01L239.99 218.711L236.746 223.624C236.746 223.624 235.721 212.272 229.186 214.109C222.652 215.945 229.186 235.239 229.186 235.239L225.013 240.366C225.013 240.366 222.127 231.494 215.497 231.9C208.867 232.305 220.29 247.736 219.503 249.667C218.716 251.599 219.503 253.889 217.142 254.914C214.781 255.94 212.015 263.619 206.697 265.384C203.978 266.29 203.358 267.626 208.485 266.839C211.276 266.743 215.235 266.004 217.715 264.215C222.795 260.542 224.202 256.393 224.202 256.393C224.202 256.393 240.347 255.033 242.518 249.667C244.688 244.301 229.162 246.328 229.162 246.328L236.603 237.814C236.603 237.814 258.258 238.411 258.854 231.709C259.45 225.008 243.877 227.583 243.877 227.583L246.429 220.691C246.429 220.691 269.395 221.168 267.368 214.132C265.341 207.097 248.599 207.884 248.599 207.884H248.647Z" fill="#976F44"/>
<path d="M166.488 259.684C142.734 259.684 121.532 252.219 115.594 249.906C115.117 249.715 114.664 249.548 114.258 249.405C112.064 248.618 109.584 247.736 108.272 245.088C107.533 243.633 107.366 242.179 107.128 239.985C106.985 238.816 106.818 237.29 106.508 235.286C101.046 200.491 98.1843 182.008 97.9697 180.362C97.278 175.163 102.096 170.823 103.574 169.607L106.555 167.198L109.536 169.607C109.536 169.607 121.962 177.954 172.641 178.502C177.649 178.55 182.109 178.574 186.091 178.574C203.859 178.574 210.99 178.025 213.804 177.524C213.947 177.047 214.138 176.523 214.448 175.998L215.831 173.709C215.831 173.709 218.788 173.685 218.907 173.685C221.292 173.685 221.602 174.209 227.612 184.131L228.638 185.848L214.042 243.18L213.637 243.824C212.731 245.231 203.978 257.609 172.831 259.469C170.756 259.588 168.634 259.66 166.488 259.66V259.684Z" fill="#E0BCA5"/>
<path d="M199.208 96.5812C199.208 96.5812 238.201 102.615 237.676 125.057C237.152 147.499 209.463 144.088 209.463 144.088C209.463 144.088 134.625 143.492 118.36 142.681C102.095 141.87 95.2509 128.682 95.2509 120.335C95.2509 111.988 109.155 96.3666 126.231 95.9135C143.306 95.4603 199.232 96.5812 199.232 96.5812H199.208Z" fill="#D8A38C"/>
<path d="M102.072 137.792L123.13 287.253C123.13 287.253 132.05 305.164 166.964 305.951C201.879 306.738 214.495 285.679 214.495 285.679L231.213 139.152C231.213 139.152 227.421 145.114 167.155 144.207C106.889 143.301 102.048 137.792 102.048 137.792H102.072Z" fill="#F0CEB2"/>
<path d="M234.767 118.904C234.767 118.904 229.425 126.702 208.008 128.086C186.592 129.469 109.942 130.518 105.482 127.489C101.022 124.461 95.2509 121.193 95.2509 121.193C95.2509 121.193 94.7978 137.577 106.961 142.395C119.124 147.189 207.698 147.212 215.521 146.115C223.343 145.018 235.363 140.916 236.389 130.28C237.414 119.643 234.767 118.928 234.767 118.928V118.904Z" fill="#E0BCA5"/>
<path d="M161.742 111.701C161.742 111.701 185.471 107.957 199.065 113.872C212.659 119.786 213.351 125.2 213.351 125.2C213.351 125.2 211.18 126.392 185.591 126.679C160.001 126.965 121.103 126.75 121.103 126.75L161.766 111.725L161.742 111.701Z" fill="#9F5754"/>
<path d="M235.816 116.614C235.816 116.614 230.474 124.413 209.058 125.796C187.641 127.179 110.991 128.229 106.531 125.2C102.072 122.171 96.3002 118.904 96.3002 118.904C96.3002 118.904 95.8471 135.288 108.01 140.105C120.173 144.899 208.748 144.923 216.57 143.826C224.393 142.729 236.412 138.627 237.438 127.99C238.463 117.354 235.816 116.638 235.816 116.638V116.614Z" fill="#F0CEB2"/>
<path opacity="0.43" d="M198.469 103.044C198.469 103.044 185.471 132.784 154.563 139.867C123.655 146.926 98.4467 138.651 94.7024 137.434C90.9581 136.218 112.613 108.673 142.543 103.068C172.474 97.4636 198.469 103.068 198.469 103.068V103.044Z" fill="#9F5754"/>
<path d="M80.1784 68.5349C80.1784 68.5349 65.2013 70.9437 51.1781 82.1049C50.4865 82.6535 49.151 83.5836 49.0794 85.086C49.0079 86.5885 49.2225 87.3278 49.2225 87.3278L57.665 106.383C57.665 106.383 47.1715 117.64 45.4544 121.05C44.1427 123.674 52.1798 141.465 53.2053 143.015C54.2308 144.565 57.2596 146.378 60.9562 147.117C64.6528 147.856 67.9916 147.165 67.9916 147.165C67.9916 147.165 91.0296 142.777 112.303 136.743C133.576 130.709 171.854 114.444 171.854 114.444C171.854 114.444 109.346 132.259 100.498 134.906C91.6736 137.554 60.3838 143.897 60.0499 142.085C55.3278 140.702 53.086 139.819 49.4849 121.67C51.3451 119.071 61.2662 107.289 61.2662 107.289C61.2662 107.289 53.3245 87.2324 54.6124 85.1576C63.4126 74.6879 80.2022 68.5349 80.2022 68.5349H80.1784Z" fill="#E0BCA5"/>
<path d="M54.5408 85.8254C54.6123 84.5375 62.4109 72.9708 99.9729 61.4041C137.511 49.8374 163.769 52.1984 163.769 52.1984L177.458 73.6386C177.458 73.6386 189.979 72.6846 192.864 74.2587C195.75 75.8327 197.324 89.4981 199.423 92.3838C201.521 95.2695 202.309 101.566 195.488 106.288C188.667 111.01 84.9958 139.366 84.9958 139.366C84.9958 139.366 63.9849 144.088 58.2135 142.252C52.4421 140.415 49.8425 124.031 49.1032 122.29C48.3639 120.549 61.1946 107.266 61.1946 107.266C61.1946 107.266 54.4692 87.0894 54.5408 85.8015V85.8254Z" fill="#82524A"/>
<path d="M61.2185 107.289C61.2185 107.289 59.7399 115.66 61.9101 116.447C66.7276 120.192 91.8405 115.851 94.2969 115.97C96.7534 116.09 64.5335 126.297 59.096 121.193C53.6584 116.066 61.1947 107.313 61.1947 107.313L61.2185 107.289Z" fill="#65342C"/>
<path d="M178.078 74.2348C178.078 74.2348 181.608 81.0794 179.247 82.9397C176.886 84.7999 159.071 94.1009 159.071 94.1009C159.071 94.1009 184.923 89.1881 187.093 83.3689C189.263 77.5498 178.078 74.211 178.078 74.211V74.2348Z" fill="#63322A"/>
<path d="M140.349 98.6799C140.349 98.6799 145.047 98.0121 148.315 97.3682C151.582 96.7243 156.328 95.2457 156.328 95.2457C156.328 95.2457 154.73 97.1774 151.2 98.0598C147.671 98.9422 140.349 98.6799 140.349 98.6799Z" fill="#64332B"/>
<path d="M106.746 79.6485C100.188 79.0761 92.9376 79.5531 96.2526 74.6879C99.1145 69.7751 115.761 65.5061 119.791 67.3902C123.822 69.2742 114.902 76.0235 114.902 76.0235C114.902 76.0235 113.09 78.5038 115.141 78.8853C117.192 79.2669 123.13 77.526 126.684 76.4528C133.767 74.2825 141.732 68.2249 140.564 63.2882C139.395 58.3514 111.897 63.5744 103.336 67.1278C94.774 70.6813 88.2394 73.9486 86.1168 76.1666C83.088 80.4355 83.5888 84.0606 89.408 85.563C92.1506 86.2785 105.387 83.2258 108.869 81.8665C112.756 80.3401 106.746 79.6485 106.746 79.6485Z" fill="#64332B"/>
<path d="M105.935 173.351C105.935 173.351 101.666 176.785 102.072 179.742C102.477 182.7 111.921 242.942 111.921 242.942C111.921 242.942 137.392 261.449 166.988 259.684C196.585 257.919 222.389 243.92 222.389 243.92L231.237 171.658C231.237 171.658 227.827 168.963 227.827 169.034C227.827 169.106 226.324 183.868 171.973 183.272C117.621 182.676 105.935 173.327 105.935 173.327V173.351Z" fill="#B87967"/>
<path d="M204.908 246.328C204.741 246.328 204.55 246.328 204.383 246.281C202.428 245.995 201.068 244.182 201.354 242.226L209.034 189.64C209.32 187.684 211.156 186.325 213.088 186.611C215.044 186.897 216.403 188.71 216.117 190.665L208.438 243.252C208.175 245.041 206.649 246.305 204.908 246.305V246.328Z" fill="#9D5B56"/>
<path d="M144.451 249.667C142.686 249.667 141.16 248.379 140.921 246.591L133.314 191.858C133.051 189.902 134.411 188.089 136.366 187.827C138.298 187.565 140.134 188.924 140.397 190.88L148.005 245.613C148.267 247.569 146.908 249.381 144.952 249.643C144.785 249.643 144.618 249.667 144.451 249.667Z" fill="#9D5B56"/>
<path d="M127.709 247.33C125.897 247.33 124.346 245.971 124.156 244.134L118.241 189.401C118.027 187.445 119.457 185.681 121.413 185.466C123.369 185.251 125.133 186.682 125.348 188.638L131.263 243.371C131.477 245.327 130.046 247.092 128.091 247.306C127.972 247.306 127.828 247.306 127.709 247.306V247.33Z" fill="#9D5B56"/>
<path d="M254.395 100.54C251.652 100.54 249.41 99.1092 249.41 97.3444C249.41 95.5796 251.652 94.1248 254.395 94.1248C257.137 94.1248 259.355 95.5557 259.355 97.3444C259.355 99.1331 257.137 100.54 254.395 100.54Z" fill="#C68064"/>
<path d="M273.927 115.279C273.927 117.902 270.302 120.049 265.842 120.049C261.382 120.049 257.781 117.902 257.781 115.279C257.781 112.655 261.382 110.533 265.842 110.533C270.302 110.533 273.927 112.655 273.927 115.279Z" fill="#C68064"/>
<path d="M242.017 88.3295C242.017 93.0993 239.966 96.9628 237.414 96.9628C234.862 96.9628 232.788 93.0993 232.788 88.3295C232.788 83.5597 234.862 79.6723 237.414 79.6723C239.966 79.6723 242.017 83.5597 242.017 88.3295Z" fill="#C68064"/>
<g opacity="0.2">
<path d="M46.7559 339.751L55.3892 353.13L47.0421 367.058L38.3849 353.417L46.7559 339.751Z" stroke="#82524A" stroke-miterlimit="10"/>
</g>
<path d="M23.5018 304L39.4328 328.684L24.0265 354.417L8 329.208L23.5018 304Z" fill="#82524A" fill-opacity="0.3"/>
</svg>
