<svg width="13" height="13" viewBox="0 0 13 13" fill="none" xmlns="http://www.w3.org/2000/svg">
<path d="M12.5767 6.5625C12.5767 6.1075 12.5359 5.67 12.4601 5.25H6.41675V7.735H9.87008C9.71841 8.53417 9.26341 9.21083 8.58091 9.66583V11.2817H10.6634C11.8767 10.1617 12.5767 8.51667 12.5767 6.5625Z" fill="#4285F4"/>
<path d="M6.41681 12.8333C8.14931 12.8333 9.60181 12.2617 10.6635 11.2817L8.58098 9.66584C8.00931 10.0508 7.28014 10.2842 6.41681 10.2842C4.74848 10.2842 3.33098 9.15834 2.82348 7.64168H0.688477V9.29834C1.74431 11.3925 3.90848 12.8333 6.41681 12.8333Z" fill="#34A853"/>
<path d="M2.82333 7.63583C2.695 7.25083 2.61917 6.8425 2.61917 6.41667C2.61917 5.99083 2.695 5.5825 2.82333 5.1975V3.54083H0.688333C0.250833 4.40417 0 5.37833 0 6.41667C0 7.455 0.250833 8.42917 0.688333 9.2925L2.35083 7.9975L2.82333 7.63583Z" fill="#FBBC05"/>
<path d="M6.41681 2.555C7.36181 2.555 8.20181 2.88167 8.87264 3.51167L10.7101 1.67417C9.59598 0.635833 8.14931 0 6.41681 0C3.90848 0 1.74431 1.44083 0.688477 3.54083L2.82348 5.1975C3.33098 3.68083 4.74848 2.555 6.41681 2.555Z" fill="#EA4335"/>
</svg>
