<?xml version="1.0" encoding="UTF-8"?>
<svg id="Layer_1" data-name="Layer 1" xmlns="http://www.w3.org/2000/svg" width="100%" height="100%" viewBox="0 0 311.12 351.77">
  <defs>
    <style>
      .cls-1 {
        fill: #d8a38c;
      }

      .cls-1, .cls-2, .cls-3, .cls-4, .cls-5, .cls-6, .cls-7, .cls-8, .cls-9, .cls-10, .cls-11, .cls-12, .cls-13, .cls-14, .cls-15 {
        stroke-width: 0px;
      }

      .cls-2 {
        fill: #e0bca5;
      }

      .cls-3 {
        fill: #65342c;
      }

      .cls-4 {
        fill: #64332b;
      }

      .cls-5 {
        fill: #f0ceb2;
      }

      .cls-6 {
        fill: #82524a;
      }

      .cls-7 {
        fill: #63322a;
      }

      .cls-8 {
        fill: #c68064;
      }

      .cls-9 {
        fill: #e8ba99;
      }

      .cls-16 {
        fill: none;
        stroke: #82524a;
        stroke-miterlimit: 10;
      }

      .cls-10 {
        fill: #b87967;
      }

      .cls-11 {
        fill: #492233;
      }

      .cls-12 {
        isolation: isolate;
        opacity: .43;
      }

      .cls-12, .cls-14 {
        fill: #9f5754;
      }

      .cls-17 {
        opacity: .2;
      }

      .cls-13 {
        fill: rgba(130, 82, 74, .3);
      }

      .cls-14 {
        opacity: .15;
      }

      .cls-15 {
        fill: #9d5b56;
      }

      .cls-18 {
        opacity: .25;
      }
    </style>
  </defs>
  <g class="cls-18">
    <path class="cls-16" d="M212.83,139.47H.5v186.98h212.33v-186.98Z"/>
    <path class="cls-16" d="M.5,295.29h212.33"/>
    <path class="cls-16" d="M.5,264.12h212.33"/>
    <path class="cls-16" d="M.5,232.95h212.33"/>
    <path class="cls-16" d="M.5,201.78h212.33"/>
    <path class="cls-16" d="M.5,170.64h212.33"/>
    <path class="cls-16" d="M177.43,139.47v186.98"/>
    <path class="cls-16" d="M142.04,139.47v186.98"/>
    <path class="cls-16" d="M106.65,139.47v186.98"/>
    <path class="cls-16" d="M71.28,139.47v186.98"/>
    <path class="cls-16" d="M35.89,139.47v186.98"/>
  </g>
  <g>
    <path class="cls-2" d="M97.88,261.19c-21.64-9.8-37.87-25.35-42.32-29.91-.36-.37-.7-.71-1.01-1.01-1.67-1.62-3.57-3.45-3.67-6.4-.07-1.63.38-3.02,1.06-5.12.35-1.12.83-2.58,1.37-4.54,9.38-33.95,14.4-51.96,14.89-53.55,1.52-5.02,7.7-6.99,9.54-7.48l3.71-.96,1.72,3.42s7.87,12.73,53.81,34.14c4.54,2.11,8.59,3.97,12.22,5.62,16.18,7.33,22.91,9.78,25.68,10.48.33-.38.72-.77,1.22-1.12l2.2-1.51s2.7,1.2,2.81,1.25c2.17.98,2.24,1.59,3.62,13.11l.23,1.99-36.95,46.2-.63.42c-1.41.91-14.49,8.57-43.63-2.59-1.94-.75-3.9-1.56-5.86-2.44v.02Z"/>
    <path class="cls-1" d="M195,126.12s33.03,21.59,23.29,41.81c-9.74,20.23-33.55,5.69-33.55,5.69,0,0-67.92-31.43-82.4-38.88-14.48-7.45-15.27-22.29-11.83-29.89s22.56-16.09,38.3-9.46c15.74,6.63,66.22,30.73,66.22,30.73h-.02Z"/>
    <path class="cls-5" d="M89.51,123.57l-42.5,144.83s.73,20,32.21,35.12c31.48,15.13,51.66,1.15,51.66,1.15l75.7-126.57s-5.91,3.87-60.44-21.83c-54.52-25.7-56.66-32.71-56.66-32.71h.02Z"/>
    <path class="cls-2" d="M218.17,161.13s-8.08,4.9-28.16-2.68c-20.08-7.58-90.33-38.25-93.14-42.85-2.81-4.6-6.72-9.96-6.72-9.96,0,0-7.17,14.74,1.92,24.14,9.1,9.39,89.77,45.96,97.35,48.19,7.58,2.23,20.22,3.45,25.54-5.81,5.32-9.27,3.21-11.01,3.21-11.01v-.02Z"/>
    <path class="cls-14" d="M154.63,124.43s23.16,6.38,33.1,17.38c9.94,11,8.34,16.21,8.34,16.21,0,0-2.47.19-25.9-10.11-23.43-10.3-58.77-26.55-58.77-26.55l43.24,3.09v-.03Z"/>
    <path class="cls-5" d="M220.07,159.48s-8.08,4.9-28.16-2.68c-20.08-7.58-90.33-38.25-93.14-42.85-2.81-4.6-6.72-9.96-6.72-9.96,0,0-7.17,14.74,1.92,24.14,9.1,9.39,89.77,45.96,97.35,48.19,7.58,2.23,20.22,3.45,25.54-5.81,5.32-9.27,3.21-11.01,3.21-11.01v-.02Z"/>
    <path class="cls-10" d="M78.35,157.56s-5.31,1.37-6.16,4.23c-.85,2.86-17.11,61.63-17.11,61.63,0,0,15.56,27.37,43.25,37.97,27.69,10.61,56.97,8.5,56.97,8.5l37.88-62.17s-1.99-3.86-2.02-3.8-7.49,12.89-56.75-10.08c-49.26-22.97-56.05-36.31-56.05-36.31v.02Z"/>
    <path class="cls-15" d="M138.39,264.87c-.15-.07-.33-.15-.46-.26-1.66-1.07-2.15-3.28-1.09-4.94l28.7-44.73c1.07-1.66,3.3-2.14,4.94-1.09,1.66,1.07,2.15,3.28,1.09,4.94l-28.7,44.73c-.98,1.52-2.89,2.04-4.48,1.32v.02Z"/>
    <path class="cls-15" d="M81.94,242.97c-1.61-.73-2.47-2.53-1.95-4.26l15.66-52.99c.57-1.89,2.55-2.98,4.44-2.41,1.87.56,2.98,2.55,2.41,4.44l-15.66,52.99c-.57,1.89-2.55,2.98-4.44,2.41-.15-.07-.31-.12-.47-.18Z"/>
    <path class="cls-15" d="M67.66,233.93c-1.65-.75-2.5-2.63-1.92-4.38l17.2-52.3c.61-1.87,2.64-2.89,4.51-2.28s2.89,2.64,2.28,4.51l-17.2,52.3c-.61,1.87-2.64,2.89-4.51,2.28l-.35-.16v.02Z"/>
  </g>
  <path class="cls-12" d="M220.34,159.99c-15.31,32.04-53.81,8.11-91.04-11.05-37.23-19.16-37.47-22.2-39.8-25.38-2.33-3.17,21.93-30.08,49.52-17.19,27.59,12.89,43.98,19.38,57.16,28.62s22.53,19.59,24.17,24.99Z"/>
  <g>
    <path class="cls-2" d="M85.99,46.5s-12.98,7.85-21.79,23.46c-.44.77-1.32,2.13-.83,3.55.5,1.42.97,2.02.97,2.02l14.97,14.5s-5.5,14.37-5.82,18.18c-.23,2.92,13.89,16.4,15.42,17.45s5.02,1.6,8.72.89c3.7-.7,6.54-2.59,6.54-2.59,0,0,19.71-12.71,37.17-26.28,17.46-13.57,46.84-43.01,46.84-43.01,0,0-51.26,39.96-58.47,45.74-7.19,5.76-33.81,23.38-34.8,21.83-4.9.49-7.31.51-17.45-14.96.75-3.11,5.53-17.75,5.53-17.75,0,0-14.89-15.61-14.47-18.02,4.23-13.01,17.49-25.01,17.49-25.01h-.02Z"/>
    <path class="cls-6" d="M68.71,72.15c-.42-1.22,2.47-14.87,32.95-39.68C132.12,7.66,157.34,0,157.34,0l20.73,14.74s11.25-5.58,14.51-5.2c3.27.38,9.85,12.45,12.88,14.34,3.03,1.89,6.12,7.43,1.57,14.36-4.55,6.94-90.01,72.11-90.01,72.11,0,0-17.71,12.26-23.74,12.72-6.04.46-14.59-13.75-15.93-15.09s5.57-18.46,5.57-18.46c0,0-13.8-16.18-14.22-17.4v.02Z"/>
    <path class="cls-3" d="M82.95,89.54s1.77,8.31,4.08,8.23c5.87,1.66,27.52-11.78,29.84-12.59,2.32-.81-23.72,20.74-30.67,18.05-6.96-2.71-3.26-13.65-3.26-13.65v-.03Z"/>
    <path class="cls-7" d="M178.88,15.06s5.84,5.02,4.35,7.63c-1.49,2.61-14.52,17.91-14.52,17.91,0,0,22.12-14.25,21.95-20.46-.17-6.21-11.79-5.11-11.79-5.11v.02Z"/>
    <path class="cls-4" d="M153.07,51.87s4.1-2.38,6.89-4.2c2.79-1.82,6.63-4.97,6.63-4.97,0,0-.76,2.39-3.7,4.53-2.94,2.14-9.83,4.65-9.83,4.65Z"/>
    <path class="cls-4" d="M114.78,46.84c-6.29,1.93-12.84,5.09-11.59-.66.81-5.63,14.64-15.83,19.08-15.59,4.44.23-1.29,9.84-1.29,9.84,0,0-.75,2.98,1.3,2.56,2.04-.42,6.9-4.26,9.79-6.59,5.75-4.67,10.86-13.27,7.93-17.41-2.94-4.14-26.47,11.02-33.07,17.52-6.6,6.51-11.44,11.99-12.57,14.84-1.21,5.09.62,8.27,6.58,7.48,2.81-.37,13.94-8.16,16.65-10.73,3.03-2.87-2.8-1.26-2.8-1.26Z"/>
  </g>
  <path class="cls-8" d="M301.82,53.19c-2.33-1.44-3.49-3.84-2.56-5.34s3.6-1.56,5.93-.12,3.47,3.82,2.53,5.35-3.57,1.55-5.9.11Z"/>
  <path class="cls-8" d="M310.68,76c-1.38,2.23-5.59,2.15-9.39-.19s-5.73-6.06-4.35-8.3,5.56-2.14,9.35.2,5.76,6.06,4.38,8.29Z"/>
  <path class="cls-8" d="M297.71,36.3c-2.51,4.06-6.28,6.27-8.45,4.92s-1.9-5.72.6-9.78,6.32-6.27,8.49-4.93,1.87,5.73-.64,9.78Z"/>
  <g class="cls-17">
    <path class="cls-16" d="M46.26,323.51l8.63,13.38-8.35,13.93-8.66-13.64,8.37-13.67Z"/>
  </g>
  <path class="cls-13" d="M23,287.76l15.93,24.68-15.41,25.73-16.03-25.21,15.5-25.21Z"/>
  <path class="cls-9" d="M201.31,49.73c12.76-13.51,35.37-12.84,50.5,1.45s17.1,36.85,4.33,50.36c-3.51,3.72-6.7,8.47-22.61,8.44-11.12,15.47-12.64,20.52-57.58,21.52-4.6-4.35,34.65-17,27.51-39.16-15.15-14.31-14.91-29.09-2.14-42.6l-.02-.02Z"/>
  <path class="cls-9" d="M207.54,14.35c4.32-.91,16.51,3.48,17.92,7.88,1.41,4.43-9.35,6.4-13.65,7.31-4.29.91-13.37.74-14.76-3.67-1.4-4.41,6.19-10.61,10.5-11.53v.02Z"/>
  <path class="cls-11" d="M224.31,91.42c-.34,0-.69-.06-1.03-.19-1.48-.57-2.22-2.24-1.65-3.72.97-2.52,6.18-14.99,13.86-13.28,8.45,1.88,10.42,5.97,11.73,8.69.21.44.4.86.64,1.23.84,1.35.43,3.12-.92,3.96-1.35.84-3.12.43-3.97-.91-.34-.54-.63-1.14-.94-1.78-1.06-2.21-2.07-4.29-7.79-5.57-1.46-.3-5.01,3.94-7.24,9.73-.44,1.14-1.53,1.84-2.68,1.84ZM216.64,76.07c-1.59,0-2.88-1.29-2.88-2.88v-6.71c0-1.59,1.29-2.88,2.88-2.88s2.88,1.29,2.88,2.88v6.71c0,1.59-1.29,2.88-2.88,2.88ZM245.41,74.16c-1.59,0-2.88-1.29-2.88-2.88v-7.67c0-1.59,1.29-2.88,2.88-2.88s2.88,1.29,2.88,2.88v7.67c0,1.59-1.29,2.88-2.88,2.88Z"/>
  <path class="cls-11" d="M221.44,65.52c-.98,0-1.93-.5-2.47-1.4-1.89-3.15-8.39-1.98-10.34-1.55-1.56.35-3.09-.63-3.43-2.18-.34-1.55.63-3.09,2.18-3.43,7.96-1.77,13.83-.28,16.52,4.2.82,1.36.38,3.13-.99,3.95-.46.28-.97.41-1.48.41Z"/>
  <path class="cls-11" d="M238.7,63.61c-.55,0-1.11-.16-1.6-.48-1.32-.88-1.68-2.67-.8-3.99,2.32-3.47,9.55-6.32,10.97-6.85,1.49-.56,3.15.2,3.7,1.68.56,1.49-.19,3.15-1.68,3.7-3.69,1.38-7.45,3.52-8.21,4.66-.55.83-1.47,1.28-2.4,1.28Z"/>
</svg>