<svg width="146" height="331" viewBox="0 0 146 331" fill="none" xmlns="http://www.w3.org/2000/svg">
<g clip-path="url(#clip0_16_386)">
<path d="M146.869 171.27C146.869 171.27 72.9207 205.593 60.551 206.25C48.1812 206.907 40.7459 211.478 40.7459 211.478L48.4786 219.362L50.8579 218.976L141.204 188.253L146.869 171.285L146.869 171.27Z" fill="#D59E7F"/>
<path d="M149.843 174.256C149.843 174.256 75.8948 208.578 63.5251 209.235C51.1554 209.892 43.72 214.463 43.72 214.463L51.4528 222.347L53.8321 221.962L144.178 191.238L149.843 174.27L149.843 174.256Z" fill="#D29573"/>
<path d="M86.2231 326.858C86.2231 326.858 79.1122 297.763 76.0164 291.221C72.9206 284.679 68.2836 269.325 64.8769 264.411C61.4701 259.498 56.5222 246.757 56.5222 245.129C56.5222 243.501 51.5743 232.374 51.5743 230.417C51.5743 228.461 50.6415 222.247 49.7222 221.59C49.7222 221.59 101.702 206.55 111.287 199.694C120.872 192.838 148.41 179.426 148.41 179.426L148.41 326.858L86.2231 326.858Z" fill="#D69F80"/>
<path d="M146.869 193.881C147.247 193.881 147.626 194.052 147.896 194.366C148.383 194.966 148.329 195.866 147.761 196.38C147.572 196.552 142.975 200.737 137 201.737C132.214 202.536 125.157 205.764 120.155 208.507C118.655 209.335 113.734 211.292 107.502 213.763C99.7149 216.863 86.6693 222.047 85.358 223.347C82.9786 225.861 69.9059 229.332 67.3103 230.017C66.5803 230.203 65.8503 229.732 65.6745 228.975C65.4988 228.203 65.9449 227.432 66.6614 227.246C72.8125 225.647 82.0864 222.762 83.4383 221.333C84.9118 219.776 93.5368 216.277 106.528 211.106C112.193 208.85 117.533 206.721 118.885 205.979C121.399 204.593 130.132 199.994 136.567 198.923C141.758 198.052 145.936 194.281 145.976 194.238C146.233 194.009 146.544 193.895 146.855 193.895L146.869 193.881Z" fill="#D29574"/>
<path d="M148.41 204.408C149.153 204.408 149.762 205.05 149.762 205.836C149.762 206.621 149.153 207.264 148.41 207.264C147.761 207.364 143.665 208.807 142.34 209.821C140.339 211.364 131.498 214.663 124.4 216.191C120.845 216.963 116.424 219.491 112.517 221.733C108.489 224.047 105.001 226.047 102.595 226.132C98.6606 226.275 85.8717 232.817 84.7362 233.902C83.56 235.145 79.9099 235.716 73.164 236.388L72.0149 236.502C69.7708 236.745 64.8229 239.087 63.0925 239.987C62.4301 240.33 61.6055 240.044 61.281 239.33C60.9566 238.616 61.2269 237.759 61.9029 237.416C62.5788 237.073 68.6082 233.988 71.7311 233.66L72.8937 233.545C75.0972 233.331 81.8161 232.66 82.8435 231.846C84.2225 230.389 97.7278 223.447 102.473 223.276C104.244 223.219 107.786 221.19 111.206 219.219C115.275 216.891 119.885 214.249 123.833 213.392C131.106 211.821 139.366 208.55 140.718 207.507C142.462 206.164 147.409 204.408 148.383 204.408L148.41 204.408Z" fill="#D29574"/>
<path d="M140.353 223.433C140.907 223.433 141.434 223.804 141.623 224.39C141.867 225.133 141.502 225.947 140.799 226.218C140.42 226.361 131.376 229.746 128.118 230.075C125.725 230.317 118.263 233.588 115.586 234.831C115.492 234.874 115.397 234.902 115.289 234.931C112.463 235.488 104.771 237.088 103.135 237.702C102.703 237.873 102.094 238.059 101.391 238.302C98.931 239.116 94.8077 240.473 93.0097 242.144C91.0224 244.001 86.3179 245.158 82.1811 246.186C80.5453 246.586 78.9907 246.972 78.1255 247.3C74.9756 248.457 67.8917 248.629 67.5808 248.643C66.8102 248.629 66.2154 248.029 66.2019 247.243C66.1884 246.457 66.7832 245.8 67.5267 245.786C69.4599 245.743 74.9621 245.443 77.2332 244.615C78.2336 244.244 79.7748 243.858 81.5593 243.415C84.8173 242.615 89.7382 241.387 91.2252 240.016C93.4558 237.93 97.7548 236.516 100.594 235.588C101.256 235.374 101.824 235.188 102.23 235.031C104.271 234.26 113.045 232.488 114.64 232.174C116.167 231.46 124.725 227.561 127.861 227.246C130.281 227.004 137.365 224.49 139.893 223.547C140.042 223.49 140.19 223.461 140.339 223.461L140.353 223.433Z" fill="#D29574"/>
<path d="M140.352 233.802C140.515 233.802 140.677 233.831 140.826 233.888C141.231 234.045 141.529 234.402 141.65 234.831C141.677 234.945 144.787 246.329 145.652 249.257C146.26 251.314 150.789 259.012 153.682 263.683C153.912 264.069 153.966 264.54 153.817 264.954C153.669 265.383 153.344 265.697 152.925 265.826C143.435 268.754 118.263 276.581 115.897 277.709C114.477 278.381 108.367 280.537 101.905 282.823C95.6322 285.037 87.8589 287.779 86.7098 288.379C86.4394 288.607 86.1014 288.736 85.7364 288.707C84.6955 288.622 84.5197 288.065 83.5464 284.922C82.6271 281.951 81.0859 276.995 79.3961 274.381C76.4895 269.853 73.8263 260.855 73.7182 260.484C73.61 260.112 73.6506 259.698 73.8263 259.355C74.0021 259.012 74.313 258.77 74.678 258.67C75.7325 258.384 89.9273 254.328 96.2946 251.785C103.581 248.871 108.516 248.871 110.138 248.871C110.841 248.871 111.679 248.414 112.747 247.843C114.045 247.143 115.667 246.272 117.884 245.758C120.209 245.215 122.197 245.8 123.508 246.186C123.765 246.257 124.076 246.357 124.319 246.415C125.347 244.444 130.484 240.287 139.622 234.017C139.839 233.86 140.096 233.788 140.352 233.788L140.352 233.802ZM150.438 263.654C148.342 260.212 143.827 252.642 143.083 250.143C142.407 247.872 140.488 240.887 139.568 237.502C133.674 241.63 127.51 246.357 126.766 247.629C126.563 248.414 126.131 248.843 125.793 249.043C124.9 249.6 123.914 249.314 122.778 248.986C121.602 248.643 120.128 248.2 118.465 248.6C116.586 249.043 115.194 249.785 113.964 250.442C112.625 251.157 111.476 251.771 110.138 251.771C108.637 251.771 104.081 251.771 97.2545 254.499C91.5766 256.77 80.6128 259.969 76.7464 261.083C77.6116 263.769 79.6124 269.653 81.6402 272.81C83.5329 275.767 85.0875 280.766 86.1149 284.065C86.2501 284.522 86.3988 284.994 86.534 285.408C88.4267 284.622 92.4012 283.194 101.053 280.137C107.177 277.981 113.504 275.752 114.788 275.138C117.452 273.867 143.34 265.84 150.424 263.654L150.438 263.654ZM87.0072 288.065C87.0072 288.065 87.0613 287.979 87.0883 287.922C87.0613 287.965 87.0342 288.022 87.0072 288.065Z" fill="#D29574"/>
<path d="M127.104 284.908C128.185 284.908 129.024 285.037 129.321 285.136C130.024 285.379 130.416 286.193 130.173 286.936C129.943 287.679 129.172 288.093 128.469 287.836C127.861 287.693 124.13 287.522 122.521 289.093C119.696 291.878 105.731 293.549 105.596 293.564C104.46 293.678 100.756 296.135 100.323 297.077C100.093 297.734 99.5256 299.305 90.1706 300.177C89.427 300.248 88.7646 299.663 88.7105 298.877C88.6429 298.091 89.1972 297.392 89.9407 297.334C93.1582 297.034 97.0246 296.363 97.9168 295.792C98.9443 293.735 103.541 290.907 105.339 290.736C108.651 290.407 119.087 288.607 120.683 287.022C122.413 285.322 125.144 284.908 127.104 284.908Z" fill="#D29574"/>
<path d="M130.822 289.593C130.903 289.593 130.984 289.593 131.065 289.621C131.795 289.764 132.282 290.536 132.147 291.321C131.795 293.464 128.902 294.749 124.238 296.663C121.899 297.62 118.979 298.82 118.317 299.677C117.087 301.277 114.004 302.191 109.435 303.39C107.596 303.876 104.852 304.605 104.244 305.076C102.527 307.975 93.8748 308.218 93.7802 308.218C93.0367 308.218 92.4283 307.575 92.4283 306.79C92.4283 306.004 93.0367 305.362 93.7802 305.362C96.538 305.362 101.31 304.419 101.946 303.562C102.594 302.291 104.622 301.719 108.773 300.62C111.436 299.92 115.451 298.848 116.208 297.877C117.316 296.449 120.061 295.306 123.238 294.006C125.414 293.107 129.064 291.607 129.483 290.75C129.592 290.064 130.159 289.607 130.795 289.607L130.822 289.593Z" fill="#D29574"/>
<path d="M146.869 295.606C147.396 295.606 147.91 295.949 148.126 296.492C148.41 297.22 148.072 298.049 147.382 298.348C145.3 299.248 139.541 301.876 137.973 303.305C136.757 304.405 133.864 305.304 129.227 306.661C126.428 307.475 122.94 308.504 122.156 309.161C120.858 310.232 118.087 310.961 114.856 311.789C112.206 312.475 109.205 313.26 107.569 314.174C103.892 316.231 95.9838 319.745 95.6458 319.888C94.9563 320.188 94.1722 319.859 93.8748 319.131C93.5909 318.402 93.9154 317.559 94.5913 317.26C94.6724 317.217 102.73 313.646 106.299 311.646C108.245 310.561 111.274 309.775 114.207 309.018C116.749 308.361 119.642 307.604 120.48 306.918C121.615 305.976 124.265 305.147 128.51 303.919C131.403 303.076 135.364 301.905 136.216 301.148C138.406 299.163 145.557 296.063 146.368 295.72C146.531 295.649 146.706 295.62 146.882 295.62L146.869 295.606Z" fill="#D29574"/>
<path d="M150.776 304.262C151.519 304.262 152.127 304.905 152.127 305.69C152.127 306.433 151.587 307.047 150.911 307.118C150.154 307.29 146.355 308.875 144.395 311.461C142.299 314.231 138.203 315.688 133.458 317.388C132.174 317.845 130.862 318.316 129.51 318.831C123.4 321.187 114.248 324.658 114.248 324.658L113.342 321.973C113.342 321.973 122.494 318.516 128.591 316.16C129.957 315.631 131.295 315.146 132.593 314.689C136.932 313.146 140.677 311.803 142.286 309.689C144.895 306.247 149.843 304.276 150.789 304.276L150.776 304.262Z" fill="#D29574"/>
<g opacity="0.15">
<path d="M6.15296e-05 325.344C6.15296e-05 325.344 153.371 189.682 156.061 179.44C158.752 169.199 150.776 331 150.776 331L0.0135961 325.344L6.15296e-05 325.344Z" fill="#B5755D"/>
</g>
<path d="M150.424 148.032L151.857 149.96L154.818 153.445C154.507 153.731 114.396 184.282 99.2147 186.868C92.7392 187.968 78.8283 192.338 66.5667 196.195C51.1282 201.051 43.6253 203.293 39.6372 203.951C40.2997 213.82 49.9386 251 52.737 256.998C53.7779 259.227 56.0897 262.84 58.5501 266.654C63.4439 274.281 69.0001 282.923 70.2844 289.193C72.0283 297.691 80.1937 326.915 80.2883 327.201L73.8128 329.229C73.4749 328.015 65.4852 299.448 63.6872 290.693C62.6733 285.765 57.2928 277.381 52.9668 270.653C50.2765 266.454 47.9378 262.826 46.6941 260.155C44.842 256.199 40.7187 241.415 37.7852 229.403C31.188 202.294 32.7697 200.137 33.9323 198.551C34.811 197.366 36.1899 196.78 37.5824 197.023C40.1915 197.023 53.7374 192.767 64.6471 189.339C77.7198 185.225 91.2386 180.983 98.1467 179.812C110.043 177.784 146.395 151.36 150.424 148.032ZM37.7581 197.066C37.7581 197.066 37.6905 197.052 37.6635 197.052C37.6905 197.052 37.7311 197.052 37.7581 197.066Z" fill="#9A6757"/>
<path d="M128.064 141.204C128.064 141.204 124.792 133.034 121.669 130.663C118.546 128.292 99.4173 107.082 95.9565 101.725C92.4957 96.3691 84.7629 81.7573 83.722 79.4006C82.681 77.0439 75.6918 66.3457 75.0834 65.5601C74.4751 64.7745 89.7514 47.9489 93.5772 45.9064C97.403 43.8639 117.046 30.6519 119.277 26.5669C121.507 22.4818 147.571 -0.0142673 147.571 -0.0142673L151.722 125.778C151.722 125.778 140.406 133.634 138.622 135.062C136.837 136.491 128.05 141.19 128.05 141.19L128.064 141.204Z" fill="#D9A589"/>
<path d="M155.223 106.353L156.372 107.11C155.791 108.238 133.634 124.921 124.143 132.034L123.359 130.863C135.661 121.636 154.29 107.51 155.223 106.353Z" fill="#9A6757"/>
<path d="M135.378 10.7981C144.597 23.6531 159.982 44.3066 162.01 45.0636C163.889 45.5064 164.254 46.5205 164.822 48.0631C165.214 49.1344 165.741 50.5913 167.025 52.5909C168.877 55.4904 170.134 58.847 170.959 61.0752C171.351 62.1321 171.797 63.3462 172 63.5604C172 63.5604 171.932 63.489 171.797 63.4605L171.527 64.8602C170.851 64.7174 170.54 63.8747 169.688 61.6036C168.837 59.304 167.66 56.1617 165.889 53.405C164.511 51.2626 163.956 49.72 163.537 48.5773C163.024 47.1633 162.875 46.7348 161.685 46.4634C158.9 45.8064 138.379 17.3684 134.282 11.6694L135.364 10.8124L135.378 10.7981Z" fill="#9A6757"/>
<path d="M124.224 21.5106C128.226 25.8813 132.133 33.0943 132.62 33.9941C135.851 37.4793 144.435 46.492 146.328 47.4633C148.788 48.7487 157.481 58.6042 158.468 59.7326L158.616 59.9754C161.09 67.3884 164.875 78.6436 165.132 79.2435L163.916 79.8719C163.618 79.2435 158.522 64.0175 157.386 60.5895C154.682 57.5186 147.598 49.72 145.733 48.7487C143.286 47.4775 132.782 36.2081 131.592 34.9226L131.484 34.7654C131.443 34.694 127.307 26.9239 123.251 22.4961L124.224 21.4963L124.224 21.5106Z" fill="#9A6757"/>
<path d="M115.126 32.7087C115.6 33.1657 126.685 43.9353 131.133 50.3627C133.269 53.4336 134.999 56.5188 136.405 58.9898C137.527 60.9752 138.811 63.2319 139.271 63.4748C140.758 63.8604 148.504 71.7591 149.626 74.4015C149.87 74.9585 150.181 75.8012 150.559 76.8153C151.83 80.1862 153.939 85.8423 156.278 88.699C159.428 92.5412 161.361 98.5973 161.442 98.8401L160.158 99.2971C160.158 99.2971 158.224 93.2553 155.264 89.6274C152.776 86.5993 150.694 81.0289 149.302 77.3438C148.937 76.3583 148.626 75.5441 148.396 74.9871C147.409 72.6732 140.055 65.2602 138.906 64.846C138.054 64.6174 137.216 63.2034 135.256 59.7326C133.863 57.2901 132.147 54.2335 130.051 51.2197C125.671 44.9065 114.329 33.8942 114.221 33.7799L115.14 32.7229L115.126 32.7087Z" fill="#9A6757"/>
<path d="M102.148 41.4357C102.648 41.8785 114.45 52.4052 118.479 58.0614C120.723 61.2323 122.129 63.589 123.359 65.6744C124.333 67.317 125.171 68.731 126.212 70.1736C127.063 71.3591 129.118 74.6728 131.714 78.8721C136.202 86.128 142.353 96.0834 144.624 98.5687C146.179 100.283 146.449 101.554 146.733 102.911C147.139 104.81 147.585 106.953 152.181 111.438C159.738 118.822 160.063 121.251 159.982 121.822L158.643 121.608C158.643 121.608 158.413 119.479 151.262 112.495C146.368 107.71 145.841 105.225 145.408 103.239C145.138 101.982 144.935 100.997 143.637 99.5828C141.285 96.9975 135.35 87.3849 130.578 79.672C128.104 75.6584 125.955 72.2018 125.13 71.0592C124.049 69.5594 123.197 68.1311 122.21 66.46C120.993 64.4032 119.601 62.0607 117.384 58.947C113.463 53.4194 101.391 42.6641 101.269 42.5498L102.135 41.45L102.148 41.4357Z" fill="#9A6757"/>
<path d="M88.6295 51.8768C88.7106 52.0339 96.3622 67.6597 101.526 71.759C106.785 75.9297 128.104 96.5262 128.578 102.782C128.807 105.767 134.648 113.352 139.339 119.451C144.395 126.021 147.261 129.82 147.179 131.492L145.828 131.42C145.882 130.206 141.664 124.736 138.284 120.351C132.971 113.452 127.483 106.325 127.226 102.897C126.82 97.6403 107.029 77.9151 100.702 72.9017C95.2807 68.6024 87.7237 53.1908 87.4128 52.5338L88.6159 51.8768L88.6295 51.8768Z" fill="#9A6757"/>
<path d="M79.396 60.0468C80.1125 61.0752 81.1399 62.1178 82.3431 63.3176C84.452 65.4458 87.0611 68.0882 89.6432 72.2447C92.2389 76.4439 94.5506 79.3149 96.5919 81.843C97.7005 83.2142 98.7414 84.4997 99.7283 85.8852C102.635 89.9273 119.601 108.91 123.102 111.524C126.752 114.252 138.852 136.134 139.365 137.062L138.203 137.776C134.742 131.52 125.157 114.809 122.318 112.681C118.776 110.024 101.594 90.8272 98.6603 86.7422C97.6869 85.3995 96.6595 84.1141 95.5645 82.7714C93.4961 80.2147 91.1574 77.3009 88.5077 73.0302C86.0202 69.0167 83.4651 66.4314 81.4103 64.346C80.1665 63.0891 79.0985 62.0179 78.3145 60.8895L79.396 60.0325L79.396 60.0468Z" fill="#9A6757"/>
<path d="M94.4426 134.277C93.5368 137.019 92.5229 140.076 91.5495 142.975C85.4931 161.101 84.2223 165.271 84.4251 166.486C84.7631 168.528 86.4935 175.498 86.5746 175.798L87.2776 178.655L95.132 167.585L95.1996 167.328C95.2402 167.171 99.4581 151.631 103.5 136.219C111.963 103.982 111.666 103.796 110.422 103.054C110.165 102.897 109.827 102.782 109.435 102.682L109.976 100.768C113.153 100.668 115.721 97.9117 115.721 94.5265C115.721 91.1414 113.058 88.2562 109.786 88.2562C106.515 88.2562 103.865 91.07 103.865 94.5265C103.865 97.0404 105.285 99.1972 107.312 100.197L106.731 102.268C106.082 102.211 105.487 102.197 105.095 102.182L104.906 102.182L104.663 101.04L98.8497 102.411L90.9412 131.863L91.4955 132.449C91.6036 132.577 92.5094 133.477 94.4561 134.277L94.4426 134.277ZM109.8 91.1271C111.584 91.1271 113.031 92.6554 113.031 94.5408C113.031 96.4262 111.584 97.9402 109.8 97.9402C108.015 97.9402 106.582 96.4119 106.582 94.5408C106.582 92.6697 108.029 91.1271 109.8 91.1271ZM93.5909 162.9L88.2104 161.929C89.6163 157.301 92.1038 149.874 94.0911 143.932C97.4978 133.734 99.6068 127.407 99.8095 125.878C100.134 123.522 103.865 111.709 105.812 105.71L108.137 106.439C106.582 114.195 99.2012 142.147 93.5909 162.9ZM101.013 104.825L103.433 104.253C102.027 108.567 97.5519 122.479 97.1463 125.464C97.0652 126.107 96.3352 128.464 95.3348 131.577C94.767 131.334 94.3209 131.092 94.01 130.892L101.013 104.825Z" fill="#B67965"/>
</g>
<defs>
<clipPath id="clip0_16_386">
<rect width="172" height="331" fill="white" transform="translate(172 331) rotate(-180)"/>
</clipPath>
</defs>
</svg>
