<svg width="193" height="379" viewBox="0 0 193 379" fill="none" xmlns="http://www.w3.org/2000/svg">
<g clip-path="url(#clip0_16_360)">
<path d="M-2.54004 182.23C-2.54004 182.23 95.9139 138.99 112.383 138.162C128.852 137.334 138.751 131.576 138.751 131.576L128.456 121.643L125.288 122.129L5.0015 160.835L-2.54004 182.212V182.23Z" fill="#D59E7F"/>
<path d="M-6.49988 178.469C-6.49988 178.469 91.9541 135.229 108.423 134.401C124.892 133.574 134.791 127.816 134.791 127.816L124.496 117.883L121.328 118.369L1.04166 157.074L-6.49988 178.451V178.469Z" fill="#D29573"/>
<path d="M78.203 -13.7817C78.203 -13.7817 87.6704 22.8727 91.7922 31.1141C95.9139 39.3555 102.088 58.6994 106.623 64.8894C111.159 71.0795 117.747 87.1304 117.747 89.1817C117.747 91.2331 124.334 105.251 124.334 107.716C124.334 110.181 125.576 118.009 126.8 118.836C126.8 118.836 57.5943 137.784 44.8331 146.422C32.0718 155.059 -4.59192 171.956 -4.59192 171.956V-13.7817H78.203Z" fill="#D69F80"/>
<path d="M-2.54001 153.745C-3.04398 153.745 -3.54794 153.529 -3.90792 153.134C-4.55588 152.378 -4.48389 151.244 -3.72793 150.596C-3.47595 150.38 2.64368 145.108 10.5992 143.848C16.9708 142.841 26.3662 138.774 33.0258 135.319C35.0237 134.275 41.5753 131.81 49.8728 128.697C60.2402 124.792 77.6091 118.261 79.355 116.623C82.5228 113.456 99.9277 109.083 103.384 108.22C104.355 107.986 105.327 108.58 105.561 109.533C105.795 110.505 105.201 111.477 104.247 111.711C96.058 113.726 83.7107 117.361 81.9108 119.16C79.949 121.122 68.4657 125.53 51.1687 132.044C43.6272 134.887 36.5176 137.568 34.7177 138.504C31.3699 140.25 19.7426 146.044 11.1752 147.393C4.26358 148.491 -1.29808 153.241 -1.35208 153.295C-1.69406 153.583 -2.10803 153.727 -2.52201 153.727L-2.54001 153.745Z" fill="#D29574"/>
<path d="M-4.59196 140.484C-5.5819 140.484 -6.39185 139.674 -6.39185 138.684C-6.39185 137.694 -5.5819 136.885 -4.59196 136.885C-3.72801 136.759 1.72566 134.941 3.48955 133.664C6.15339 131.72 17.9247 127.564 27.3741 125.638C32.1078 124.667 37.9934 121.482 43.1951 118.656C48.5588 115.741 53.2025 113.222 56.4063 113.114C61.644 112.934 78.671 104.693 80.1829 103.325C81.7488 101.76 86.6085 101.04 95.5899 100.194L97.1198 100.05C100.108 99.7444 106.695 96.7933 108.999 95.6597C109.881 95.2278 110.979 95.5877 111.411 96.4874C111.843 97.3872 111.483 98.4668 110.583 98.8987C109.683 99.3305 101.656 103.217 97.4978 103.631L95.9499 103.775C93.0161 104.045 84.0706 104.891 82.7027 105.916C80.8668 107.752 62.8859 116.497 56.5683 116.713C54.2104 116.785 49.4947 119.34 44.941 121.823C39.5233 124.757 33.3857 128.085 28.13 129.165C18.4466 131.144 7.44931 135.265 5.64942 136.579C3.32756 138.27 -3.26004 140.484 -4.55596 140.484H-4.59196Z" fill="#D29574"/>
<path d="M6.13544 116.515C5.39749 116.515 4.69553 116.047 4.44355 115.309C4.11957 114.374 4.60554 113.348 5.54148 113.006C6.04545 112.826 18.0867 108.562 22.4244 108.148C25.6103 107.842 35.5456 103.721 39.1094 102.156C39.2354 102.102 39.3614 102.066 39.5054 102.03C43.2672 101.328 53.5085 99.3125 55.6864 98.5388C56.2624 98.3229 57.0723 98.0889 58.0083 97.783C61.2841 96.7574 66.7737 95.0479 69.1676 92.9426C71.8134 90.6033 78.077 89.1458 83.5847 87.8502C85.7626 87.3463 87.8325 86.8605 88.9844 86.4466C93.1781 84.9891 102.61 84.7732 103.024 84.7552C104.049 84.7732 104.841 85.5289 104.859 86.5186C104.877 87.5083 104.085 88.336 103.096 88.354C100.522 88.408 93.1961 88.7859 90.1723 89.8296C88.8404 90.2974 86.7885 90.7832 84.4127 91.3411C80.0749 92.3488 73.5233 93.8963 71.5434 95.6237C68.5736 98.2509 62.85 100.032 59.0702 101.202C58.1883 101.472 57.4323 101.706 56.8923 101.904C54.1745 102.875 42.4932 105.107 40.3694 105.503C38.3355 106.402 26.9422 111.315 22.7664 111.711C19.5446 112.017 10.1132 115.184 6.74741 116.371C6.54942 116.443 6.35143 116.479 6.15344 116.479L6.13544 116.515Z" fill="#D29574"/>
<path d="M6.13542 103.451C5.91943 103.451 5.70344 103.415 5.50546 103.343C4.96549 103.145 4.56952 102.695 4.40752 102.156C4.37153 102.012 0.231779 87.6702 -0.920151 83.9814C-1.7301 81.3902 -7.75973 71.6913 -11.6115 65.8072C-11.9175 65.3213 -11.9895 64.7275 -11.7915 64.2057C-11.5935 63.6658 -11.1615 63.27 -10.6036 63.108C2.03167 59.4192 35.5456 49.5583 38.6954 48.1368C40.5853 47.291 48.7208 44.5739 57.3243 41.6948C65.6758 38.9057 76.0251 35.4508 77.555 34.695C77.915 34.4071 78.365 34.2451 78.851 34.2811C80.2369 34.3891 80.4709 35.0909 81.7668 39.0496C82.9907 42.7924 85.0426 49.0365 87.2924 52.3294C91.1622 58.0336 94.708 69.37 94.852 69.8379C94.996 70.3057 94.942 70.8276 94.708 71.2594C94.474 71.6913 94.06 71.9972 93.5741 72.1232C92.1702 72.483 73.2713 77.5934 64.7938 80.7964C55.0924 84.4672 48.5228 84.4672 46.363 84.4672C45.427 84.4672 44.3111 85.0431 42.8892 85.7628C41.1613 86.6446 39.0014 87.7422 36.0496 88.39C32.9538 89.0738 30.3079 88.336 28.562 87.8502C28.2201 87.7602 27.8061 87.6342 27.4821 87.5623C26.1142 90.0455 19.2746 95.2818 7.10736 103.181C6.81938 103.379 6.4774 103.469 6.13542 103.469V103.451ZM-7.29176 65.8431C-4.50193 70.1798 1.5097 79.7168 2.49964 82.8658C3.39958 85.7268 5.95543 94.5261 7.17935 98.7907C15.0269 93.5904 23.2344 87.6342 24.2243 86.0327C24.4943 85.0431 25.0703 84.5032 25.5202 84.2513C26.7082 83.5495 28.0221 83.9094 29.534 84.3233C31.0999 84.7552 33.0618 85.313 35.2756 84.8091C37.7775 84.2513 39.6314 83.3156 41.2693 82.4879C43.0512 81.5882 44.5811 80.8144 46.363 80.8144C48.3608 80.8144 54.4265 80.8144 63.5159 77.3775C71.0754 74.5164 85.6725 70.4857 90.8202 69.0821C89.6683 65.6992 87.0045 58.2855 84.3046 54.3088C81.7848 50.584 79.7149 44.286 78.347 40.1293C78.167 39.5535 77.969 38.9597 77.789 38.4378C75.2692 39.4275 69.9775 41.2269 58.4582 45.0777C50.3047 47.7949 41.8812 50.602 40.1713 51.3757C36.6256 52.9772 2.15766 63.09 -7.27376 65.8431H-7.29176ZM77.1591 35.0909C77.1591 35.0909 77.0871 35.1988 77.0511 35.2708C77.0871 35.2168 77.1231 35.1449 77.1591 35.0909Z" fill="#D29574"/>
<path d="M23.7744 39.0676C22.3345 39.0676 21.2185 38.9057 20.8226 38.7797C19.8866 38.4738 19.3646 37.4481 19.6886 36.5124C19.9946 35.5767 21.0205 35.0549 21.9565 35.3788C22.7664 35.5587 27.7341 35.7747 29.876 33.7953C33.6378 30.2864 52.2306 28.1811 52.4106 28.1631C53.9225 28.0191 58.8542 24.9241 59.4302 23.7365C59.7362 22.9087 60.4921 20.9294 72.9474 19.8317C73.9373 19.7417 74.8193 20.4795 74.8912 21.4692C74.9812 22.4589 74.2433 23.3406 73.2533 23.4126C68.9696 23.7905 63.8219 24.6362 62.634 25.356C61.2661 27.9471 55.1465 31.51 52.7526 31.7259C48.3429 32.1398 34.4477 34.4071 32.3238 36.4045C30.02 38.5458 26.3842 39.0676 23.7744 39.0676Z" fill="#D29574"/>
<path d="M18.8247 33.1655C18.7167 33.1655 18.6087 33.1655 18.5007 33.1295C17.5288 32.9496 16.8808 31.9779 17.0608 30.9882C17.5288 28.289 21.3805 26.6695 27.5901 24.2583C30.704 23.0527 34.5917 21.5412 35.4737 20.4615C37.1116 18.4461 41.2153 17.2945 47.2989 15.783C49.7468 15.1712 53.4006 14.2535 54.2105 13.6597C56.4964 10.0068 68.0157 9.70091 68.1417 9.70091C69.1316 9.70091 69.9416 10.5107 69.9416 11.5003C69.9416 12.49 69.1316 13.2998 68.1417 13.2998C64.4699 13.2998 58.1163 14.4874 57.2703 15.5671C56.4064 17.1685 53.7066 17.8883 48.1809 19.2739C44.6351 20.1556 39.2894 21.5052 38.2815 22.7288C36.8056 24.5282 33.1518 25.9678 28.9221 27.6052C26.0242 28.7389 21.1645 30.6283 20.6066 31.7079C20.4626 32.5717 19.7066 33.1475 18.8607 33.1475L18.8247 33.1655Z" fill="#D29574"/>
<path d="M-2.54007 25.5899C-3.24203 25.5899 -3.92599 25.158 -4.21397 24.4742C-4.59195 23.5565 -4.14198 22.5129 -3.22403 22.135C-0.452202 21.0013 7.21533 17.6904 9.3032 15.891C10.9231 14.5054 14.7749 13.3718 20.9485 11.6623C24.6743 10.6366 29.318 9.34103 30.3619 8.51329C32.0898 7.16372 35.7796 6.24601 40.0813 5.20234C43.6091 4.33861 47.6049 3.34892 49.7827 2.19729C54.6784 -0.39389 65.2078 -4.82049 65.6578 -5.00043C66.5757 -5.37831 67.6196 -4.96444 68.0156 -4.04673C68.3936 -3.12902 67.9616 -2.06736 67.0617 -1.68948C66.9537 -1.6355 56.2263 2.86308 51.4746 5.38228C48.8828 6.74985 44.851 7.73954 40.9453 8.69323C37.5615 9.52097 33.7097 10.4747 32.5938 11.3384C31.0819 12.526 27.5541 13.5697 21.9024 15.1172C18.0507 16.1789 12.777 17.6544 11.6431 18.6081C8.72724 21.1093 -0.794181 25.0141 -1.87412 25.4459C-2.0901 25.5359 -2.32409 25.5719 -2.55807 25.5719L-2.54007 25.5899Z" fill="#D29574"/>
<path d="M-7.74174 14.6853C-8.73168 14.6853 -9.54163 13.8756 -9.54163 12.8859C-9.54163 11.9502 -8.82167 11.1764 -7.92172 11.0865C-6.91379 10.8705 -1.8561 8.87318 0.753745 5.61621C3.54357 2.12531 8.99724 0.289894 15.3149 -1.85143C17.0247 -2.42725 18.7706 -3.02106 20.5705 -3.66885C28.706 -6.63791 40.8913 -11.0105 40.8913 -11.0105L42.0972 -7.6276C42.0972 -7.6276 29.912 -3.27298 21.7945 -0.303917C19.9766 0.361872 18.1947 0.973678 16.4668 1.5495C10.6891 3.49288 5.70344 5.18434 3.56157 7.8475C0.0877848 12.1841 -6.49981 14.6673 -7.75974 14.6673L-7.74174 14.6853Z" fill="#D29574"/>
<g opacity="0.15">
<path d="M193 -11.8743C193 -11.8743 -11.1975 159.036 -14.7793 171.938C-18.3611 184.839 -7.74174 -19 -7.74174 -19L192.982 -11.8743H193Z" fill="#B5755D"/>
</g>
<path d="M-7.27377 211.507L-9.18166 209.078L-13.1234 204.687C-12.7094 204.327 40.6933 165.837 60.9061 162.581C69.5275 161.195 88.0484 155.689 104.373 150.83C124.928 144.712 134.918 141.887 140.227 141.059C139.345 128.625 126.512 81.7861 122.786 74.2285C121.4 71.4214 118.323 66.8688 115.047 62.0643C108.531 52.4554 101.134 41.5688 99.4237 33.6693C97.1018 22.9627 86.2305 -13.8536 86.1045 -14.2135L94.726 -16.7687C95.176 -15.2392 105.813 20.7494 108.207 31.7799C109.557 37.988 116.721 48.5506 122.48 57.0259C126.062 62.3163 129.176 66.8868 130.832 70.2517C133.298 75.2362 138.787 93.8603 142.693 108.993C151.477 143.147 149.371 145.864 147.823 147.861C146.653 149.355 144.817 150.092 142.963 149.787C139.489 149.787 121.454 155.149 106.929 159.468C89.5243 164.65 71.5254 169.994 62.328 171.47C46.4889 174.025 -1.9101 207.314 -7.27377 211.507ZM142.729 149.733C142.729 149.733 142.819 149.751 142.855 149.751C142.819 149.751 142.765 149.751 142.729 149.733Z" fill="#9A6757"/>
<path d="M22.4964 220.108C22.4964 220.108 26.8521 230.401 31.0098 233.388C35.1676 236.375 60.636 263.097 65.2438 269.845C69.8515 276.592 80.1468 295.001 81.5328 297.97C82.9187 300.939 92.2241 314.416 93.0341 315.406C93.844 316.396 73.5052 337.593 68.4116 340.166C63.3179 342.739 37.1655 359.384 34.1956 364.531C31.2258 369.677 -3.47605 398.018 -3.47605 398.018L-9.00171 239.542C-9.00171 239.542 6.06337 229.645 8.43923 227.846C10.8151 226.046 22.5144 220.126 22.5144 220.126L22.4964 220.108Z" fill="#D9A589"/>
<path d="M-13.6633 264.014L-15.1932 263.061C-14.4193 261.639 15.0809 240.622 27.7161 231.661L28.7601 233.136C12.3811 244.76 -12.4214 262.557 -13.6633 264.014Z" fill="#9A6757"/>
<path d="M12.759 384.396C0.483768 368.201 -19.999 342.182 -22.6988 341.228C-25.2007 340.67 -25.6866 339.393 -26.4426 337.449C-26.9646 336.1 -27.6665 334.264 -29.3764 331.745C-31.8423 328.092 -33.5162 323.863 -34.6141 321.056C-35.1361 319.725 -35.73 318.195 -36 317.925C-36 317.925 -35.91 318.015 -35.73 318.051L-35.37 316.288C-34.4701 316.468 -34.0561 317.529 -32.9222 320.391C-31.7883 323.288 -30.2224 327.246 -27.8645 330.719C-26.0286 333.418 -25.2907 335.362 -24.7327 336.801C-24.0487 338.583 -23.8507 339.123 -22.2668 339.465C-18.5591 340.292 8.76326 376.119 14.2169 383.299L12.777 384.378L12.759 384.396Z" fill="#9A6757"/>
<path d="M27.6081 370.901C22.2804 365.394 17.0787 356.307 16.4308 355.174C12.129 350.783 0.699747 339.429 -1.8201 338.205C-5.0959 336.585 -16.6692 324.169 -17.9831 322.748L-18.1811 322.442C-21.4749 313.103 -26.5146 298.923 -26.8566 298.168L-25.2367 297.376C-24.8407 298.168 -18.0551 317.35 -16.5432 321.668C-12.9434 325.537 -3.512 335.362 -1.02815 336.585C2.22965 338.187 16.2148 352.384 17.7987 354.004L17.9427 354.202C17.9967 354.292 23.5044 364.081 28.904 369.659L27.6081 370.919V370.901Z" fill="#9A6757"/>
<path d="M39.7214 356.793C39.0914 356.217 24.3323 342.65 18.4107 334.552C15.5668 330.683 13.263 326.797 11.3911 323.684C9.89718 321.182 8.18729 318.339 7.57532 318.033C5.59544 317.547 -4.71792 307.597 -6.21183 304.268C-6.53581 303.566 -6.94979 302.504 -7.45376 301.227C-9.14565 296.98 -11.9535 289.854 -15.0673 286.255C-19.261 281.415 -21.8349 273.785 -21.9429 273.479L-20.233 272.904C-20.233 272.904 -17.6591 280.515 -13.7174 285.086C-10.4056 288.901 -7.63374 295.918 -5.77986 300.561C-5.29389 301.802 -4.87992 302.828 -4.57393 303.53C-3.26001 306.445 6.53139 315.784 8.06129 316.306C9.19522 316.594 10.3112 318.375 12.921 322.748C14.7749 325.825 17.0607 329.676 19.8506 333.472C25.6822 341.426 40.7833 355.299 40.9273 355.443L39.7034 356.775L39.7214 356.793Z" fill="#9A6757"/>
<path d="M57.0003 345.799C56.3343 345.241 40.6213 331.979 35.2576 324.853C32.2698 320.858 30.3979 317.889 28.76 315.262C27.4641 313.193 26.3481 311.411 24.9622 309.594C23.8283 308.1 21.0925 303.926 17.6367 298.635C11.661 289.494 3.47154 276.952 0.447725 273.821C-1.62215 271.662 -1.98212 270.06 -2.3601 268.351C-2.90007 265.958 -3.49403 263.259 -9.61366 257.608C-19.675 248.305 -20.107 245.246 -19.999 244.527L-18.2171 244.796C-18.2171 244.796 -17.9112 247.478 -8.38973 256.277C-1.87413 262.305 -1.17218 265.436 -0.59621 267.937C-0.236233 269.521 0.0337505 270.762 1.76164 272.544C4.89345 275.801 12.795 287.911 19.1486 297.628C22.4424 302.684 25.3042 307.039 26.4021 308.478C27.842 310.368 28.976 312.167 30.2899 314.272C31.9098 316.864 33.7637 319.815 36.7155 323.737C41.9352 330.701 58.0082 344.251 58.1702 344.395L57.0183 345.781L57.0003 345.799Z" fill="#9A6757"/>
<path d="M74.9992 332.645C74.8912 332.447 64.7038 312.761 57.8282 307.597C50.8266 302.342 22.4424 276.394 21.8124 268.513C21.5064 264.752 13.7309 255.197 7.48529 247.514C0.753705 239.236 -3.06206 234.45 -2.95407 232.344L-1.15418 232.434C-1.22617 233.964 4.38948 240.856 8.88921 246.38C15.9628 255.071 23.2703 264.05 23.6123 268.369C24.1523 274.991 50.5027 299.841 58.9262 306.157C66.1437 311.573 76.2051 330.989 76.6191 331.817L75.0172 332.645H74.9992Z" fill="#9A6757"/>
<path d="M87.2925 322.352C86.3385 321.056 84.9706 319.743 83.3687 318.231C80.5609 315.55 77.0871 312.221 73.6493 306.985C70.1935 301.694 67.1157 298.078 64.3979 294.893C62.9219 293.165 61.536 291.546 60.2221 289.8C56.3523 284.708 33.7637 260.793 29.102 257.5C24.2423 254.064 8.1333 226.496 7.44934 225.327L8.99725 224.427C13.605 232.308 26.3662 253.362 30.146 256.043C34.8617 259.39 57.7383 283.574 61.644 288.721C62.9399 290.412 64.3079 292.032 65.7658 293.723C68.5196 296.944 71.6334 300.615 75.1612 305.995C78.473 311.052 81.8748 314.308 84.6106 316.936C86.2665 318.519 87.6884 319.869 88.7324 321.29L87.2925 322.37V322.352Z" fill="#9A6757"/>
<path d="M67.2597 228.836C68.4656 225.381 69.8155 221.53 71.1115 217.877C79.175 195.042 80.8669 189.788 80.5969 188.258C80.1469 185.685 77.8431 176.904 77.7351 176.526L76.7991 172.927L66.3418 186.873L66.2518 187.197C66.1978 187.395 60.5821 206.972 55.2004 226.388C43.9331 267.001 44.3291 267.235 45.985 268.171C46.327 268.369 46.777 268.513 47.2989 268.639L46.579 271.05C42.3492 271.176 38.9294 274.649 38.9294 278.914C38.9294 283.178 42.4752 286.813 46.831 286.813C51.1867 286.813 54.7145 283.268 54.7145 278.914C54.7145 275.747 52.8246 273.03 50.1248 271.77L50.8987 269.161C51.7627 269.233 52.5546 269.251 53.0766 269.269H53.3286L53.6525 270.708L61.3921 268.981L71.9214 231.877L71.1835 231.139C71.0395 230.977 69.8336 229.843 67.2417 228.836H67.2597ZM46.813 283.196C44.4371 283.196 42.5112 281.271 42.5112 278.896C42.5112 276.52 44.4371 274.613 46.813 274.613C49.1888 274.613 51.0967 276.538 51.0967 278.896C51.0967 281.253 49.1708 283.196 46.813 283.196ZM68.3936 192.775L75.5572 193.999C73.6853 199.829 70.3735 209.186 67.7277 216.671C63.192 229.519 60.3841 237.491 60.1141 239.416C59.6822 242.385 54.7145 257.267 52.1226 264.824L49.0268 263.906C51.0967 254.136 60.9241 218.921 68.3936 192.775ZM58.5122 265.94L55.2904 266.66C57.1623 261.225 63.12 243.699 63.6599 239.938C63.7679 239.128 64.7399 236.159 66.0718 232.236C66.8277 232.542 67.4217 232.848 67.8357 233.1L58.5122 265.94Z" fill="#B67965"/>
</g>
<defs>
<clipPath id="clip0_16_360">
<rect width="229" height="417" fill="white" transform="translate(-36 -19)"/>
</clipPath>
</defs>
</svg>
